<svg width="64" height="64" viewBox="0 0 64 64" fill="none" xmlns="http://www.w3.org/2000/svg">
<rect width="64" height="64" rx="32" fill="#3E285A"/>
<path fill-rule="evenodd" clip-rule="evenodd" d="M41.3333 24.0002H22.6667C21.9333 24.0002 21.3333 23.4002 21.3333 22.6668C21.3333 21.9335 21.9333 21.3335 22.6667 21.3335H41.3333C42.0667 21.3335 42.6667 21.9335 42.6667 22.6668C42.6667 23.4002 42.0667 24.0002 41.3333 24.0002ZM42.88 26.4002C42.76 25.7868 42.2133 25.3335 41.5733 25.3335H22.4267C21.7867 25.3335 21.24 25.7868 21.12 26.4002L20 32.0002V33.3335C20 34.0668 20.6 34.6668 21.3333 34.6668V41.3335C21.3333 42.0668 21.9333 42.6668 22.6667 42.6668H33.3333C34.0667 42.6668 34.6667 42.0668 34.6667 41.3335V34.6668H40V41.3335C40 42.0668 40.6 42.6668 41.3333 42.6668C42.0667 42.6668 42.6667 42.0668 42.6667 41.3335V34.6668C43.4 34.6668 44 34.0668 44 33.3335V32.0002L42.88 26.4002ZM32 40.0002H24V34.6668H32V40.0002Z" fill="white"/>
</svg>
